<svg xmlns="http://www.w3.org/2000/svg" width="1200" height="760" viewBox="0 0 1200 760"><rect width="100%" height="100%" fill="white"/><style>text{font-family:Arial,sans-serif;fill:#222}.h{font-size:28px;font-weight:bold}.t{font-size:20px}.s{font-size:16px}</style><text class="h" x="45" y="45">Independent internal confirmatory cohort (n=113)</text><line x1="160" y1="680" x2="1100" y2="680" stroke="#ddd"/><text class="s" x="95" y="686">0.0</text><line x1="160" y1="566.0" x2="1100" y2="566.0" stroke="#ddd"/><text class="s" x="95" y="572.0">0.2</text><line x1="160" y1="452.0" x2="1100" y2="452.0" stroke="#ddd"/><text class="s" x="95" y="458.0">0.4</text><line x1="160" y1="338.0" x2="1100" y2="338.0" stroke="#ddd"/><text class="s" x="95" y="344.0">0.6</text><line x1="160" y1="224.0" x2="1100" y2="224.0" stroke="#ddd"/><text class="s" x="95" y="230.0">0.8</text><line x1="160" y1="110.0" x2="1100" y2="110.0" stroke="#ddd"/><text class="s" x="95" y="116.0">1.0</text><text class="t" transform="translate(45,470) rotate(-90)">Patient-level Dice at threshold 0.5</text><polyline points="250,644.79 600,596.50 950,489.18" fill="none" stroke="#777" stroke-opacity="0.24" stroke-width="1"/><circle cx="250" cy="644.79" r="3" fill="#4C78A8" fill-opacity="0.55"/><circle cx="600" cy="596.50" r="3" fill="#F58518" fill-opacity="0.55"/><circle cx="950" cy="489.18" r="3" fill="#54A24B" fill-opacity="0.55"/><polyline points="250,466.23 600,288.06 950,198.68" fill="none" stroke="#777" stroke-opacity="0.24" stroke-width="1"/><circle cx="250" cy="466.23" r="3" fill="#4C78A8" fill-opacity="0.55"/><circle cx="600" cy="288.06" r="3" fill="#F58518" fill-opacity="0.55"/><circle cx="950" cy="198.68" r="3" fill="#54A24B" fill-opacity="0.55"/><polyline points="250,534.06 600,431.27 950,241.91" fill="none" stroke="#777" stroke-opacity="0.24" stroke-width="1"/><circle cx="250" cy="534.06" r="3" fill="#4C78A8" fill-opacity="0.55"/><circle cx="600" cy="431.27" r="3" fill="#F58518" fill-opacity="0.55"/><circle cx="950" cy="241.91" r="3" fill="#54A24B" fill-opacity="0.55"/><polyline points="250,572.39 600,439.85 950,283.59" fill="none" stroke="#777" stroke-opacity="0.24" stroke-width="1"/><circle cx="250" cy="572.39" r="3" fill="#4C78A8" fill-opacity="0.55"/><circle cx="600" cy="439.85" r="3" fill="#F58518" fill-opacity="0.55"/><circle cx="950" cy="283.59" r="3" fill="#54A24B" fill-opacity="0.55"/><polyline points="250,477.32 600,331.85 950,286.21" fill="none" stroke="#777" stroke-opacity="0.24" stroke-width="1"/><circle cx="250" cy="477.32" r="3" fill="#4C78A8" fill-opacity="0.55"/><circle cx="600" cy="331.85" r="3" fill="#F58518" fill-opacity="0.55"/><circle cx="950" cy="286.21" r="3" fill="#54A24B" fill-opacity="0.55"/><polyline points="250,520.60 600,386.24 950,138.50" fill="none" stroke="#777" stroke-opacity="0.24" stroke-width="1"/><circle cx="250" cy="520.60" r="3" fill="#4C78A8" fill-opacity="0.55"/><circle cx="600" cy="386.24" r="3" fill="#F58518" fill-opacity="0.55"/><circle cx="950" cy="138.50" r="3" fill="#54A24B" fill-opacity="0.55"/><polyline points="250,546.78 600,408.13 950,367.50" fill="none" stroke="#777" stroke-opacity="0.24" stroke-width="1"/><circle cx="250" cy="546.78" r="3" fill="#4C78A8" fill-opacity="0.55"/><circle cx="600" cy="408.13" r="3" fill="#F58518" fill-opacity="0.55"/><circle cx="950" cy="367.50" r="3" fill="#54A24B" fill-opacity="0.55"/><polyline points="250,583.93 600,480.26 950,281.53" fill="none" stroke="#777" stroke-opacity="0.24" stroke-width="1"/><circle cx="250" cy="583.93" r="3" fill="#4C78A8" fill-opacity="0.55"/><circle cx="600" cy="480.26" r="3" fill="#F58518" fill-opacity="0.55"/><circle cx="950" cy="281.53" r="3" fill="#54A24B" fill-opacity="0.55"/><polyline points="250,511.96 600,375.44 950,231.16" fill="none" stroke="#777" stroke-opacity="0.24" stroke-width="1"/><circle cx="250" cy="511.96" r="3" fill="#4C78A8" fill-opacity="0.55"/><circle cx="600" cy="375.44" r="3" fill="#F58518" fill-opacity="0.55"/><circle cx="950" cy="231.16" r="3" fill="#54A24B" fill-opacity="0.55"/><polyline points="250,434.25 600,296.28 950,167.48" fill="none" stroke="#777" stroke-opacity="0.24" stroke-width="1"/><circle cx="250" cy="434.25" r="3" fill="#4C78A8" fill-opacity="0.55"/><circle cx="600" cy="296.28" r="3" fill="#F58518" fill-opacity="0.55"/><circle cx="950" cy="167.48" r="3" fill="#54A24B" fill-opacity="0.55"/><polyline points="250,680.00 600,678.44 950,678.34" fill="none" stroke="#777" stroke-opacity="0.24" stroke-width="1"/><circle cx="250" cy="680.00" r="3" fill="#4C78A8" fill-opacity="0.55"/><circle cx="600" cy="678.44" r="3" fill="#F58518" fill-opacity="0.55"/><circle cx="950" cy="678.34" r="3" fill="#54A24B" fill-opacity="0.55"/><polyline points="250,331.19 600,235.07 950,162.22" fill="none" stroke="#777" stroke-opacity="0.24" stroke-width="1"/><circle cx="250" cy="331.19" r="3" fill="#4C78A8" fill-opacity="0.55"/><circle cx="600" cy="235.07" r="3" fill="#F58518" fill-opacity="0.55"/><circle cx="950" cy="162.22" r="3" fill="#54A24B" fill-opacity="0.55"/><polyline points="250,575.25 600,487.22 950,360.26" fill="none" stroke="#777" stroke-opacity="0.24" stroke-width="1"/><circle cx="250" cy="575.25" r="3" fill="#4C78A8" fill-opacity="0.55"/><circle cx="600" cy="487.22" r="3" fill="#F58518" fill-opacity="0.55"/><circle cx="950" cy="360.26" r="3" fill="#54A24B" fill-opacity="0.55"/><polyline points="250,475.56 600,310.31 950,276.15" fill="none" stroke="#777" stroke-opacity="0.24" stroke-width="1"/><circle cx="250" cy="475.56" r="3" fill="#4C78A8" fill-opacity="0.55"/><circle cx="600" cy="310.31" r="3" fill="#F58518" fill-opacity="0.55"/><circle cx="950" cy="276.15" r="3" fill="#54A24B" fill-opacity="0.55"/><polyline points="250,504.29 600,385.10 950,335.23" fill="none" stroke="#777" stroke-opacity="0.24" stroke-width="1"/><circle cx="250" cy="504.29" r="3" fill="#4C78A8" fill-opacity="0.55"/><circle cx="600" cy="385.10" r="3" fill="#F58518" fill-opacity="0.55"/><circle cx="950" cy="335.23" r="3" fill="#54A24B" fill-opacity="0.55"/><polyline points="250,612.01 600,466.69 950,334.04" fill="none" stroke="#777" stroke-opacity="0.24" stroke-width="1"/><circle cx="250" cy="612.01" r="3" fill="#4C78A8" fill-opacity="0.55"/><circle cx="600" cy="466.69" r="3" fill="#F58518" fill-opacity="0.55"/><circle cx="950" cy="334.04" r="3" fill="#54A24B" fill-opacity="0.55"/><polyline points="250,513.01 600,356.32 950,254.66" fill="none" stroke="#777" stroke-opacity="0.24" stroke-width="1"/><circle cx="250" cy="513.01" r="3" fill="#4C78A8" fill-opacity="0.55"/><circle cx="600" cy="356.32" r="3" fill="#F58518" fill-opacity="0.55"/><circle cx="950" cy="254.66" r="3" fill="#54A24B" fill-opacity="0.55"/><polyline points="250,466.49 600,316.76 950,260.04" fill="none" stroke="#777" stroke-opacity="0.24" stroke-width="1"/><circle cx="250" cy="466.49" r="3" fill="#4C78A8" fill-opacity="0.55"/><circle cx="600" cy="316.76" r="3" fill="#F58518" fill-opacity="0.55"/><circle cx="950" cy="260.04" r="3" fill="#54A24B" fill-opacity="0.55"/><polyline points="250,582.54 600,474.73 950,352.55" fill="none" stroke="#777" stroke-opacity="0.24" stroke-width="1"/><circle cx="250" cy="582.54" r="3" fill="#4C78A8" fill-opacity="0.55"/><circle cx="600" cy="474.73" r="3" fill="#F58518" fill-opacity="0.55"/><circle cx="950" cy="352.55" r="3" fill="#54A24B" fill-opacity="0.55"/><polyline points="250,599.16 600,499.60 950,469.27" fill="none" stroke="#777" stroke-opacity="0.24" stroke-width="1"/><circle cx="250" cy="599.16" r="3" fill="#4C78A8" fill-opacity="0.55"/><circle cx="600" cy="499.60" r="3" fill="#F58518" fill-opacity="0.55"/><circle cx="950" cy="469.27" r="3" fill="#54A24B" fill-opacity="0.55"/><polyline points="250,505.66 600,374.37 950,247.11" fill="none" stroke="#777" stroke-opacity="0.24" stroke-width="1"/><circle cx="250" cy="505.66" r="3" fill="#4C78A8" fill-opacity="0.55"/><circle cx="600" cy="374.37" r="3" fill="#F58518" fill-opacity="0.55"/><circle cx="950" cy="247.11" r="3" fill="#54A24B" fill-opacity="0.55"/><polyline points="250,524.38 600,382.39 950,336.93" fill="none" stroke="#777" stroke-opacity="0.24" stroke-width="1"/><circle cx="250" cy="524.38" r="3" fill="#4C78A8" fill-opacity="0.55"/><circle cx="600" cy="382.39" r="3" fill="#F58518" fill-opacity="0.55"/><circle cx="950" cy="336.93" r="3" fill="#54A24B" fill-opacity="0.55"/><polyline points="250,521.69 600,395.85 950,350.00" fill="none" stroke="#777" stroke-opacity="0.24" stroke-width="1"/><circle cx="250" cy="521.69" r="3" fill="#4C78A8" fill-opacity="0.55"/><circle cx="600" cy="395.85" r="3" fill="#F58518" fill-opacity="0.55"/><circle cx="950" cy="350.00" r="3" fill="#54A24B" fill-opacity="0.55"/><polyline points="250,486.36 600,302.87 950,169.38" fill="none" stroke="#777" stroke-opacity="0.24" stroke-width="1"/><circle cx="250" cy="486.36" r="3" fill="#4C78A8" fill-opacity="0.55"/><circle cx="600" cy="302.87" r="3" fill="#F58518" fill-opacity="0.55"/><circle cx="950" cy="169.38" r="3" fill="#54A24B" fill-opacity="0.55"/><polyline points="250,623.80 600,592.63 950,547.53" fill="none" stroke="#777" stroke-opacity="0.24" stroke-width="1"/><circle cx="250" cy="623.80" r="3" fill="#4C78A8" fill-opacity="0.55"/><circle cx="600" cy="592.63" r="3" fill="#F58518" fill-opacity="0.55"/><circle cx="950" cy="547.53" r="3" fill="#54A24B" fill-opacity="0.55"/><polyline points="250,482.71 600,335.85 950,263.06" fill="none" stroke="#777" stroke-opacity="0.24" stroke-width="1"/><circle cx="250" cy="482.71" r="3" fill="#4C78A8" fill-opacity="0.55"/><circle cx="600" cy="335.85" r="3" fill="#F58518" fill-opacity="0.55"/><circle cx="950" cy="263.06" r="3" fill="#54A24B" fill-opacity="0.55"/><polyline points="250,453.69 600,265.75 950,161.30" fill="none" stroke="#777" stroke-opacity="0.24" stroke-width="1"/><circle cx="250" cy="453.69" r="3" fill="#4C78A8" fill-opacity="0.55"/><circle cx="600" cy="265.75" r="3" fill="#F58518" fill-opacity="0.55"/><circle cx="950" cy="161.30" r="3" fill="#54A24B" fill-opacity="0.55"/><polyline points="250,561.95 600,452.81 950,430.03" fill="none" stroke="#777" stroke-opacity="0.24" stroke-width="1"/><circle cx="250" cy="561.95" r="3" fill="#4C78A8" fill-opacity="0.55"/><circle cx="600" cy="452.81" r="3" fill="#F58518" fill-opacity="0.55"/><circle cx="950" cy="430.03" r="3" fill="#54A24B" fill-opacity="0.55"/><polyline points="250,434.53 600,283.64 950,175.08" fill="none" stroke="#777" stroke-opacity="0.24" stroke-width="1"/><circle cx="250" cy="434.53" r="3" fill="#4C78A8" fill-opacity="0.55"/><circle cx="600" cy="283.64" r="3" fill="#F58518" fill-opacity="0.55"/><circle cx="950" cy="175.08" r="3" fill="#54A24B" fill-opacity="0.55"/><polyline points="250,561.36 600,412.42 950,356.42" fill="none" stroke="#777" stroke-opacity="0.24" stroke-width="1"/><circle cx="250" cy="561.36" r="3" fill="#4C78A8" fill-opacity="0.55"/><circle cx="600" cy="412.42" r="3" fill="#F58518" fill-opacity="0.55"/><circle cx="950" cy="356.42" r="3" fill="#54A24B" fill-opacity="0.55"/><polyline points="250,577.72 600,487.04 950,343.37" fill="none" stroke="#777" stroke-opacity="0.24" stroke-width="1"/><circle cx="250" cy="577.72" r="3" fill="#4C78A8" fill-opacity="0.55"/><circle cx="600" cy="487.04" r="3" fill="#F58518" fill-opacity="0.55"/><circle cx="950" cy="343.37" r="3" fill="#54A24B" fill-opacity="0.55"/><polyline points="250,516.25 600,394.51 950,280.88" fill="none" stroke="#777" stroke-opacity="0.24" stroke-width="1"/><circle cx="250" cy="516.25" r="3" fill="#4C78A8" fill-opacity="0.55"/><circle cx="600" cy="394.51" r="3" fill="#F58518" fill-opacity="0.55"/><circle cx="950" cy="280.88" r="3" fill="#54A24B" fill-opacity="0.55"/><polyline points="250,461.80 600,328.88 950,300.88" fill="none" stroke="#777" stroke-opacity="0.24" stroke-width="1"/><circle cx="250" cy="461.80" r="3" fill="#4C78A8" fill-opacity="0.55"/><circle cx="600" cy="328.88" r="3" fill="#F58518" fill-opacity="0.55"/><circle cx="950" cy="300.88" r="3" fill="#54A24B" fill-opacity="0.55"/><polyline points="250,543.01 600,391.52 950,297.71" fill="none" stroke="#777" stroke-opacity="0.24" stroke-width="1"/><circle cx="250" cy="543.01" r="3" fill="#4C78A8" fill-opacity="0.55"/><circle cx="600" cy="391.52" r="3" fill="#F58518" fill-opacity="0.55"/><circle cx="950" cy="297.71" r="3" fill="#54A24B" fill-opacity="0.55"/><polyline points="250,557.92 600,449.66 950,381.52" fill="none" stroke="#777" stroke-opacity="0.24" stroke-width="1"/><circle cx="250" cy="557.92" r="3" fill="#4C78A8" fill-opacity="0.55"/><circle cx="600" cy="449.66" r="3" fill="#F58518" fill-opacity="0.55"/><circle cx="950" cy="381.52" r="3" fill="#54A24B" fill-opacity="0.55"/><polyline points="250,533.87 600,436.17 950,387.22" fill="none" stroke="#777" stroke-opacity="0.24" stroke-width="1"/><circle cx="250" cy="533.87" r="3" fill="#4C78A8" fill-opacity="0.55"/><circle cx="600" cy="436.17" r="3" fill="#F58518" fill-opacity="0.55"/><circle cx="950" cy="387.22" r="3" fill="#54A24B" fill-opacity="0.55"/><polyline points="250,543.03 600,317.82 950,239.86" fill="none" stroke="#777" stroke-opacity="0.24" stroke-width="1"/><circle cx="250" cy="543.03" r="3" fill="#4C78A8" fill-opacity="0.55"/><circle cx="600" cy="317.82" r="3" fill="#F58518" fill-opacity="0.55"/><circle cx="950" cy="239.86" r="3" fill="#54A24B" fill-opacity="0.55"/><polyline points="250,597.88 600,465.63 950,297.21" fill="none" stroke="#777" stroke-opacity="0.24" stroke-width="1"/><circle cx="250" cy="597.88" r="3" fill="#4C78A8" fill-opacity="0.55"/><circle cx="600" cy="465.63" r="3" fill="#F58518" fill-opacity="0.55"/><circle cx="950" cy="297.21" r="3" fill="#54A24B" fill-opacity="0.55"/><polyline points="250,544.19 600,374.51 950,240.95" fill="none" stroke="#777" stroke-opacity="0.24" stroke-width="1"/><circle cx="250" cy="544.19" r="3" fill="#4C78A8" fill-opacity="0.55"/><circle cx="600" cy="374.51" r="3" fill="#F58518" fill-opacity="0.55"/><circle cx="950" cy="240.95" r="3" fill="#54A24B" fill-opacity="0.55"/><polyline points="250,532.38 600,407.84 950,376.42" fill="none" stroke="#777" stroke-opacity="0.24" stroke-width="1"/><circle cx="250" cy="532.38" r="3" fill="#4C78A8" fill-opacity="0.55"/><circle cx="600" cy="407.84" r="3" fill="#F58518" fill-opacity="0.55"/><circle cx="950" cy="376.42" r="3" fill="#54A24B" fill-opacity="0.55"/><polyline points="250,555.44 600,438.97 950,405.95" fill="none" stroke="#777" stroke-opacity="0.24" stroke-width="1"/><circle cx="250" cy="555.44" r="3" fill="#4C78A8" fill-opacity="0.55"/><circle cx="600" cy="438.97" r="3" fill="#F58518" fill-opacity="0.55"/><circle cx="950" cy="405.95" r="3" fill="#54A24B" fill-opacity="0.55"/><polyline points="250,631.25 600,424.11 950,308.64" fill="none" stroke="#777" stroke-opacity="0.24" stroke-width="1"/><circle cx="250" cy="631.25" r="3" fill="#4C78A8" fill-opacity="0.55"/><circle cx="600" cy="424.11" r="3" fill="#F58518" fill-opacity="0.55"/><circle cx="950" cy="308.64" r="3" fill="#54A24B" fill-opacity="0.55"/><polyline points="250,517.60 600,410.61 950,348.88" fill="none" stroke="#777" stroke-opacity="0.24" stroke-width="1"/><circle cx="250" cy="517.60" r="3" fill="#4C78A8" fill-opacity="0.55"/><circle cx="600" cy="410.61" r="3" fill="#F58518" fill-opacity="0.55"/><circle cx="950" cy="348.88" r="3" fill="#54A24B" fill-opacity="0.55"/><polyline points="250,657.24 600,565.74 950,442.34" fill="none" stroke="#777" stroke-opacity="0.24" stroke-width="1"/><circle cx="250" cy="657.24" r="3" fill="#4C78A8" fill-opacity="0.55"/><circle cx="600" cy="565.74" r="3" fill="#F58518" fill-opacity="0.55"/><circle cx="950" cy="442.34" r="3" fill="#54A24B" fill-opacity="0.55"/><polyline points="250,657.36 600,557.57 950,385.01" fill="none" stroke="#777" stroke-opacity="0.24" stroke-width="1"/><circle cx="250" cy="657.36" r="3" fill="#4C78A8" fill-opacity="0.55"/><circle cx="600" cy="557.57" r="3" fill="#F58518" fill-opacity="0.55"/><circle cx="950" cy="385.01" r="3" fill="#54A24B" fill-opacity="0.55"/><polyline points="250,577.76 600,419.47 950,291.53" fill="none" stroke="#777" stroke-opacity="0.24" stroke-width="1"/><circle cx="250" cy="577.76" r="3" fill="#4C78A8" fill-opacity="0.55"/><circle cx="600" cy="419.47" r="3" fill="#F58518" fill-opacity="0.55"/><circle cx="950" cy="291.53" r="3" fill="#54A24B" fill-opacity="0.55"/><polyline points="250,547.02 600,430.29 950,338.63" fill="none" stroke="#777" stroke-opacity="0.24" stroke-width="1"/><circle cx="250" cy="547.02" r="3" fill="#4C78A8" fill-opacity="0.55"/><circle cx="600" cy="430.29" r="3" fill="#F58518" fill-opacity="0.55"/><circle cx="950" cy="338.63" r="3" fill="#54A24B" fill-opacity="0.55"/><polyline points="250,364.44 600,254.98 950,211.21" fill="none" stroke="#777" stroke-opacity="0.24" stroke-width="1"/><circle cx="250" cy="364.44" r="3" fill="#4C78A8" fill-opacity="0.55"/><circle cx="600" cy="254.98" r="3" fill="#F58518" fill-opacity="0.55"/><circle cx="950" cy="211.21" r="3" fill="#54A24B" fill-opacity="0.55"/><polyline points="250,555.70 600,410.25 950,258.50" fill="none" stroke="#777" stroke-opacity="0.24" stroke-width="1"/><circle cx="250" cy="555.70" r="3" fill="#4C78A8" fill-opacity="0.55"/><circle cx="600" cy="410.25" r="3" fill="#F58518" fill-opacity="0.55"/><circle cx="950" cy="258.50" r="3" fill="#54A24B" fill-opacity="0.55"/><polyline points="250,621.67 600,524.16 950,402.50" fill="none" stroke="#777" stroke-opacity="0.24" stroke-width="1"/><circle cx="250" cy="621.67" r="3" fill="#4C78A8" fill-opacity="0.55"/><circle cx="600" cy="524.16" r="3" fill="#F58518" fill-opacity="0.55"/><circle cx="950" cy="402.50" r="3" fill="#54A24B" fill-opacity="0.55"/><polyline points="250,584.40 600,448.81 950,265.55" fill="none" stroke="#777" stroke-opacity="0.24" stroke-width="1"/><circle cx="250" cy="584.40" r="3" fill="#4C78A8" fill-opacity="0.55"/><circle cx="600" cy="448.81" r="3" fill="#F58518" fill-opacity="0.55"/><circle cx="950" cy="265.55" r="3" fill="#54A24B" fill-opacity="0.55"/><polyline points="250,506.22 600,406.23 950,301.85" fill="none" stroke="#777" stroke-opacity="0.24" stroke-width="1"/><circle cx="250" cy="506.22" r="3" fill="#4C78A8" fill-opacity="0.55"/><circle cx="600" cy="406.23" r="3" fill="#F58518" fill-opacity="0.55"/><circle cx="950" cy="301.85" r="3" fill="#54A24B" fill-opacity="0.55"/><polyline points="250,529.05 600,402.94 950,300.12" fill="none" stroke="#777" stroke-opacity="0.24" stroke-width="1"/><circle cx="250" cy="529.05" r="3" fill="#4C78A8" fill-opacity="0.55"/><circle cx="600" cy="402.94" r="3" fill="#F58518" fill-opacity="0.55"/><circle cx="950" cy="300.12" r="3" fill="#54A24B" fill-opacity="0.55"/><polyline points="250,632.47 600,571.20 950,440.70" fill="none" stroke="#777" stroke-opacity="0.24" stroke-width="1"/><circle cx="250" cy="632.47" r="3" fill="#4C78A8" fill-opacity="0.55"/><circle cx="600" cy="571.20" r="3" fill="#F58518" fill-opacity="0.55"/><circle cx="950" cy="440.70" r="3" fill="#54A24B" fill-opacity="0.55"/><polyline points="250,605.84 600,486.08 950,228.23" fill="none" stroke="#777" stroke-opacity="0.24" stroke-width="1"/><circle cx="250" cy="605.84" r="3" fill="#4C78A8" fill-opacity="0.55"/><circle cx="600" cy="486.08" r="3" fill="#F58518" fill-opacity="0.55"/><circle cx="950" cy="228.23" r="3" fill="#54A24B" fill-opacity="0.55"/><polyline points="250,636.85 600,573.78 950,487.19" fill="none" stroke="#777" stroke-opacity="0.24" stroke-width="1"/><circle cx="250" cy="636.85" r="3" fill="#4C78A8" fill-opacity="0.55"/><circle cx="600" cy="573.78" r="3" fill="#F58518" fill-opacity="0.55"/><circle cx="950" cy="487.19" r="3" fill="#54A24B" fill-opacity="0.55"/><polyline points="250,504.23 600,322.61 950,202.96" fill="none" stroke="#777" stroke-opacity="0.24" stroke-width="1"/><circle cx="250" cy="504.23" r="3" fill="#4C78A8" fill-opacity="0.55"/><circle cx="600" cy="322.61" r="3" fill="#F58518" fill-opacity="0.55"/><circle cx="950" cy="202.96" r="3" fill="#54A24B" fill-opacity="0.55"/><polyline points="250,525.04 600,378.58 950,319.07" fill="none" stroke="#777" stroke-opacity="0.24" stroke-width="1"/><circle cx="250" cy="525.04" r="3" fill="#4C78A8" fill-opacity="0.55"/><circle cx="600" cy="378.58" r="3" fill="#F58518" fill-opacity="0.55"/><circle cx="950" cy="319.07" r="3" fill="#54A24B" fill-opacity="0.55"/><polyline points="250,446.04 600,299.70 950,190.67" fill="none" stroke="#777" stroke-opacity="0.24" stroke-width="1"/><circle cx="250" cy="446.04" r="3" fill="#4C78A8" fill-opacity="0.55"/><circle cx="600" cy="299.70" r="3" fill="#F58518" fill-opacity="0.55"/><circle cx="950" cy="190.67" r="3" fill="#54A24B" fill-opacity="0.55"/><polyline points="250,614.98 600,556.94 950,534.20" fill="none" stroke="#777" stroke-opacity="0.24" stroke-width="1"/><circle cx="250" cy="614.98" r="3" fill="#4C78A8" fill-opacity="0.55"/><circle cx="600" cy="556.94" r="3" fill="#F58518" fill-opacity="0.55"/><circle cx="950" cy="534.20" r="3" fill="#54A24B" fill-opacity="0.55"/><polyline points="250,524.40 600,398.86 950,308.10" fill="none" stroke="#777" stroke-opacity="0.24" stroke-width="1"/><circle cx="250" cy="524.40" r="3" fill="#4C78A8" fill-opacity="0.55"/><circle cx="600" cy="398.86" r="3" fill="#F58518" fill-opacity="0.55"/><circle cx="950" cy="308.10" r="3" fill="#54A24B" fill-opacity="0.55"/><polyline points="250,479.98 600,321.81 950,222.05" fill="none" stroke="#777" stroke-opacity="0.24" stroke-width="1"/><circle cx="250" cy="479.98" r="3" fill="#4C78A8" fill-opacity="0.55"/><circle cx="600" cy="321.81" r="3" fill="#F58518" fill-opacity="0.55"/><circle cx="950" cy="222.05" r="3" fill="#54A24B" fill-opacity="0.55"/><polyline points="250,654.03 600,587.11 950,494.70" fill="none" stroke="#777" stroke-opacity="0.24" stroke-width="1"/><circle cx="250" cy="654.03" r="3" fill="#4C78A8" fill-opacity="0.55"/><circle cx="600" cy="587.11" r="3" fill="#F58518" fill-opacity="0.55"/><circle cx="950" cy="494.70" r="3" fill="#54A24B" fill-opacity="0.55"/><polyline points="250,330.84 600,216.37 950,159.50" fill="none" stroke="#777" stroke-opacity="0.24" stroke-width="1"/><circle cx="250" cy="330.84" r="3" fill="#4C78A8" fill-opacity="0.55"/><circle cx="600" cy="216.37" r="3" fill="#F58518" fill-opacity="0.55"/><circle cx="950" cy="159.50" r="3" fill="#54A24B" fill-opacity="0.55"/><polyline points="250,620.59 600,511.84 950,392.22" fill="none" stroke="#777" stroke-opacity="0.24" stroke-width="1"/><circle cx="250" cy="620.59" r="3" fill="#4C78A8" fill-opacity="0.55"/><circle cx="600" cy="511.84" r="3" fill="#F58518" fill-opacity="0.55"/><circle cx="950" cy="392.22" r="3" fill="#54A24B" fill-opacity="0.55"/><polyline points="250,577.49 600,423.28 950,375.58" fill="none" stroke="#777" stroke-opacity="0.24" stroke-width="1"/><circle cx="250" cy="577.49" r="3" fill="#4C78A8" fill-opacity="0.55"/><circle cx="600" cy="423.28" r="3" fill="#F58518" fill-opacity="0.55"/><circle cx="950" cy="375.58" r="3" fill="#54A24B" fill-opacity="0.55"/><polyline points="250,577.19 600,457.63 950,209.22" fill="none" stroke="#777" stroke-opacity="0.24" stroke-width="1"/><circle cx="250" cy="577.19" r="3" fill="#4C78A8" fill-opacity="0.55"/><circle cx="600" cy="457.63" r="3" fill="#F58518" fill-opacity="0.55"/><circle cx="950" cy="209.22" r="3" fill="#54A24B" fill-opacity="0.55"/><polyline points="250,562.66 600,477.85 950,372.08" fill="none" stroke="#777" stroke-opacity="0.24" stroke-width="1"/><circle cx="250" cy="562.66" r="3" fill="#4C78A8" fill-opacity="0.55"/><circle cx="600" cy="477.85" r="3" fill="#F58518" fill-opacity="0.55"/><circle cx="950" cy="372.08" r="3" fill="#54A24B" fill-opacity="0.55"/><polyline points="250,560.92 600,419.95 950,268.20" fill="none" stroke="#777" stroke-opacity="0.24" stroke-width="1"/><circle cx="250" cy="560.92" r="3" fill="#4C78A8" fill-opacity="0.55"/><circle cx="600" cy="419.95" r="3" fill="#F58518" fill-opacity="0.55"/><circle cx="950" cy="268.20" r="3" fill="#54A24B" fill-opacity="0.55"/><polyline points="250,574.66 600,522.06 950,426.62" fill="none" stroke="#777" stroke-opacity="0.24" stroke-width="1"/><circle cx="250" cy="574.66" r="3" fill="#4C78A8" fill-opacity="0.55"/><circle cx="600" cy="522.06" r="3" fill="#F58518" fill-opacity="0.55"/><circle cx="950" cy="426.62" r="3" fill="#54A24B" fill-opacity="0.55"/><polyline points="250,472.75 600,320.21 950,207.99" fill="none" stroke="#777" stroke-opacity="0.24" stroke-width="1"/><circle cx="250" cy="472.75" r="3" fill="#4C78A8" fill-opacity="0.55"/><circle cx="600" cy="320.21" r="3" fill="#F58518" fill-opacity="0.55"/><circle cx="950" cy="207.99" r="3" fill="#54A24B" fill-opacity="0.55"/><polyline points="250,638.11 600,564.79 950,418.46" fill="none" stroke="#777" stroke-opacity="0.24" stroke-width="1"/><circle cx="250" cy="638.11" r="3" fill="#4C78A8" fill-opacity="0.55"/><circle cx="600" cy="564.79" r="3" fill="#F58518" fill-opacity="0.55"/><circle cx="950" cy="418.46" r="3" fill="#54A24B" fill-opacity="0.55"/><polyline points="250,526.30 600,417.05 950,199.06" fill="none" stroke="#777" stroke-opacity="0.24" stroke-width="1"/><circle cx="250" cy="526.30" r="3" fill="#4C78A8" fill-opacity="0.55"/><circle cx="600" cy="417.05" r="3" fill="#F58518" fill-opacity="0.55"/><circle cx="950" cy="199.06" r="3" fill="#54A24B" fill-opacity="0.55"/><polyline points="250,511.23 600,381.37 950,234.41" fill="none" stroke="#777" stroke-opacity="0.24" stroke-width="1"/><circle cx="250" cy="511.23" r="3" fill="#4C78A8" fill-opacity="0.55"/><circle cx="600" cy="381.37" r="3" fill="#F58518" fill-opacity="0.55"/><circle cx="950" cy="234.41" r="3" fill="#54A24B" fill-opacity="0.55"/><polyline points="250,460.26 600,346.42 950,189.36" fill="none" stroke="#777" stroke-opacity="0.24" stroke-width="1"/><circle cx="250" cy="460.26" r="3" fill="#4C78A8" fill-opacity="0.55"/><circle cx="600" cy="346.42" r="3" fill="#F58518" fill-opacity="0.55"/><circle cx="950" cy="189.36" r="3" fill="#54A24B" fill-opacity="0.55"/><polyline points="250,500.25 600,359.07 950,264.28" fill="none" stroke="#777" stroke-opacity="0.24" stroke-width="1"/><circle cx="250" cy="500.25" r="3" fill="#4C78A8" fill-opacity="0.55"/><circle cx="600" cy="359.07" r="3" fill="#F58518" fill-opacity="0.55"/><circle cx="950" cy="264.28" r="3" fill="#54A24B" fill-opacity="0.55"/><polyline points="250,517.95 600,397.27 950,252.53" fill="none" stroke="#777" stroke-opacity="0.24" stroke-width="1"/><circle cx="250" cy="517.95" r="3" fill="#4C78A8" fill-opacity="0.55"/><circle cx="600" cy="397.27" r="3" fill="#F58518" fill-opacity="0.55"/><circle cx="950" cy="252.53" r="3" fill="#54A24B" fill-opacity="0.55"/><polyline points="250,471.28 600,342.57 950,226.57" fill="none" stroke="#777" stroke-opacity="0.24" stroke-width="1"/><circle cx="250" cy="471.28" r="3" fill="#4C78A8" fill-opacity="0.55"/><circle cx="600" cy="342.57" r="3" fill="#F58518" fill-opacity="0.55"/><circle cx="950" cy="226.57" r="3" fill="#54A24B" fill-opacity="0.55"/><polyline points="250,362.38 600,271.32 950,193.78" fill="none" stroke="#777" stroke-opacity="0.24" stroke-width="1"/><circle cx="250" cy="362.38" r="3" fill="#4C78A8" fill-opacity="0.55"/><circle cx="600" cy="271.32" r="3" fill="#F58518" fill-opacity="0.55"/><circle cx="950" cy="193.78" r="3" fill="#54A24B" fill-opacity="0.55"/><polyline points="250,672.86 600,665.60 950,648.49" fill="none" stroke="#777" stroke-opacity="0.24" stroke-width="1"/><circle cx="250" cy="672.86" r="3" fill="#4C78A8" fill-opacity="0.55"/><circle cx="600" cy="665.60" r="3" fill="#F58518" fill-opacity="0.55"/><circle cx="950" cy="648.49" r="3" fill="#54A24B" fill-opacity="0.55"/><polyline points="250,543.29 600,423.32 950,264.73" fill="none" stroke="#777" stroke-opacity="0.24" stroke-width="1"/><circle cx="250" cy="543.29" r="3" fill="#4C78A8" fill-opacity="0.55"/><circle cx="600" cy="423.32" r="3" fill="#F58518" fill-opacity="0.55"/><circle cx="950" cy="264.73" r="3" fill="#54A24B" fill-opacity="0.55"/><polyline points="250,529.59 600,413.16 950,310.84" fill="none" stroke="#777" stroke-opacity="0.24" stroke-width="1"/><circle cx="250" cy="529.59" r="3" fill="#4C78A8" fill-opacity="0.55"/><circle cx="600" cy="413.16" r="3" fill="#F58518" fill-opacity="0.55"/><circle cx="950" cy="310.84" r="3" fill="#54A24B" fill-opacity="0.55"/><polyline points="250,539.66 600,370.85 950,253.99" fill="none" stroke="#777" stroke-opacity="0.24" stroke-width="1"/><circle cx="250" cy="539.66" r="3" fill="#4C78A8" fill-opacity="0.55"/><circle cx="600" cy="370.85" r="3" fill="#F58518" fill-opacity="0.55"/><circle cx="950" cy="253.99" r="3" fill="#54A24B" fill-opacity="0.55"/><polyline points="250,541.63 600,369.81 950,289.22" fill="none" stroke="#777" stroke-opacity="0.24" stroke-width="1"/><circle cx="250" cy="541.63" r="3" fill="#4C78A8" fill-opacity="0.55"/><circle cx="600" cy="369.81" r="3" fill="#F58518" fill-opacity="0.55"/><circle cx="950" cy="289.22" r="3" fill="#54A24B" fill-opacity="0.55"/><polyline points="250,440.38 600,290.49 950,132.22" fill="none" stroke="#777" stroke-opacity="0.24" stroke-width="1"/><circle cx="250" cy="440.38" r="3" fill="#4C78A8" fill-opacity="0.55"/><circle cx="600" cy="290.49" r="3" fill="#F58518" fill-opacity="0.55"/><circle cx="950" cy="132.22" r="3" fill="#54A24B" fill-opacity="0.55"/><polyline points="250,499.65 600,382.94 950,244.67" fill="none" stroke="#777" stroke-opacity="0.24" stroke-width="1"/><circle cx="250" cy="499.65" r="3" fill="#4C78A8" fill-opacity="0.55"/><circle cx="600" cy="382.94" r="3" fill="#F58518" fill-opacity="0.55"/><circle cx="950" cy="244.67" r="3" fill="#54A24B" fill-opacity="0.55"/><polyline points="250,541.30 600,461.08 950,343.97" fill="none" stroke="#777" stroke-opacity="0.24" stroke-width="1"/><circle cx="250" cy="541.30" r="3" fill="#4C78A8" fill-opacity="0.55"/><circle cx="600" cy="461.08" r="3" fill="#F58518" fill-opacity="0.55"/><circle cx="950" cy="343.97" r="3" fill="#54A24B" fill-opacity="0.55"/><polyline points="250,460.65 600,362.68 950,200.14" fill="none" stroke="#777" stroke-opacity="0.24" stroke-width="1"/><circle cx="250" cy="460.65" r="3" fill="#4C78A8" fill-opacity="0.55"/><circle cx="600" cy="362.68" r="3" fill="#F58518" fill-opacity="0.55"/><circle cx="950" cy="200.14" r="3" fill="#54A24B" fill-opacity="0.55"/><polyline points="250,548.09 600,406.27 950,283.19" fill="none" stroke="#777" stroke-opacity="0.24" stroke-width="1"/><circle cx="250" cy="548.09" r="3" fill="#4C78A8" fill-opacity="0.55"/><circle cx="600" cy="406.27" r="3" fill="#F58518" fill-opacity="0.55"/><circle cx="950" cy="283.19" r="3" fill="#54A24B" fill-opacity="0.55"/><polyline points="250,677.83 600,648.01 950,284.44" fill="none" stroke="#777" stroke-opacity="0.24" stroke-width="1"/><circle cx="250" cy="677.83" r="3" fill="#4C78A8" fill-opacity="0.55"/><circle cx="600" cy="648.01" r="3" fill="#F58518" fill-opacity="0.55"/><circle cx="950" cy="284.44" r="3" fill="#54A24B" fill-opacity="0.55"/><polyline points="250,405.12 600,292.68 950,184.35" fill="none" stroke="#777" stroke-opacity="0.24" stroke-width="1"/><circle cx="250" cy="405.12" r="3" fill="#4C78A8" fill-opacity="0.55"/><circle cx="600" cy="292.68" r="3" fill="#F58518" fill-opacity="0.55"/><circle cx="950" cy="184.35" r="3" fill="#54A24B" fill-opacity="0.55"/><polyline points="250,559.81 600,387.51 950,365.91" fill="none" stroke="#777" stroke-opacity="0.24" stroke-width="1"/><circle cx="250" cy="559.81" r="3" fill="#4C78A8" fill-opacity="0.55"/><circle cx="600" cy="387.51" r="3" fill="#F58518" fill-opacity="0.55"/><circle cx="950" cy="365.91" r="3" fill="#54A24B" fill-opacity="0.55"/><polyline points="250,595.31 600,460.00 950,239.82" fill="none" stroke="#777" stroke-opacity="0.24" stroke-width="1"/><circle cx="250" cy="595.31" r="3" fill="#4C78A8" fill-opacity="0.55"/><circle cx="600" cy="460.00" r="3" fill="#F58518" fill-opacity="0.55"/><circle cx="950" cy="239.82" r="3" fill="#54A24B" fill-opacity="0.55"/><polyline points="250,551.70 600,389.47 950,328.15" fill="none" stroke="#777" stroke-opacity="0.24" stroke-width="1"/><circle cx="250" cy="551.70" r="3" fill="#4C78A8" fill-opacity="0.55"/><circle cx="600" cy="389.47" r="3" fill="#F58518" fill-opacity="0.55"/><circle cx="950" cy="328.15" r="3" fill="#54A24B" fill-opacity="0.55"/><polyline points="250,678.16 600,676.19 950,386.86" fill="none" stroke="#777" stroke-opacity="0.24" stroke-width="1"/><circle cx="250" cy="678.16" r="3" fill="#4C78A8" fill-opacity="0.55"/><circle cx="600" cy="676.19" r="3" fill="#F58518" fill-opacity="0.55"/><circle cx="950" cy="386.86" r="3" fill="#54A24B" fill-opacity="0.55"/><polyline points="250,596.33 600,479.38 950,382.16" fill="none" stroke="#777" stroke-opacity="0.24" stroke-width="1"/><circle cx="250" cy="596.33" r="3" fill="#4C78A8" fill-opacity="0.55"/><circle cx="600" cy="479.38" r="3" fill="#F58518" fill-opacity="0.55"/><circle cx="950" cy="382.16" r="3" fill="#54A24B" fill-opacity="0.55"/><polyline points="250,553.51 600,450.62 950,289.34" fill="none" stroke="#777" stroke-opacity="0.24" stroke-width="1"/><circle cx="250" cy="553.51" r="3" fill="#4C78A8" fill-opacity="0.55"/><circle cx="600" cy="450.62" r="3" fill="#F58518" fill-opacity="0.55"/><circle cx="950" cy="289.34" r="3" fill="#54A24B" fill-opacity="0.55"/><polyline points="250,397.87 600,271.53 950,187.71" fill="none" stroke="#777" stroke-opacity="0.24" stroke-width="1"/><circle cx="250" cy="397.87" r="3" fill="#4C78A8" fill-opacity="0.55"/><circle cx="600" cy="271.53" r="3" fill="#F58518" fill-opacity="0.55"/><circle cx="950" cy="187.71" r="3" fill="#54A24B" fill-opacity="0.55"/><polyline points="250,543.17 600,420.01 950,277.87" fill="none" stroke="#777" stroke-opacity="0.24" stroke-width="1"/><circle cx="250" cy="543.17" r="3" fill="#4C78A8" fill-opacity="0.55"/><circle cx="600" cy="420.01" r="3" fill="#F58518" fill-opacity="0.55"/><circle cx="950" cy="277.87" r="3" fill="#54A24B" fill-opacity="0.55"/><polyline points="250,641.24 600,602.39 950,513.15" fill="none" stroke="#777" stroke-opacity="0.24" stroke-width="1"/><circle cx="250" cy="641.24" r="3" fill="#4C78A8" fill-opacity="0.55"/><circle cx="600" cy="602.39" r="3" fill="#F58518" fill-opacity="0.55"/><circle cx="950" cy="513.15" r="3" fill="#54A24B" fill-opacity="0.55"/><polyline points="250,654.42 600,538.85 950,359.34" fill="none" stroke="#777" stroke-opacity="0.24" stroke-width="1"/><circle cx="250" cy="654.42" r="3" fill="#4C78A8" fill-opacity="0.55"/><circle cx="600" cy="538.85" r="3" fill="#F58518" fill-opacity="0.55"/><circle cx="950" cy="359.34" r="3" fill="#54A24B" fill-opacity="0.55"/><polyline points="250,583.77 600,454.69 950,291.78" fill="none" stroke="#777" stroke-opacity="0.24" stroke-width="1"/><circle cx="250" cy="583.77" r="3" fill="#4C78A8" fill-opacity="0.55"/><circle cx="600" cy="454.69" r="3" fill="#F58518" fill-opacity="0.55"/><circle cx="950" cy="291.78" r="3" fill="#54A24B" fill-opacity="0.55"/><polyline points="250,616.86 600,508.59 950,482.90" fill="none" stroke="#777" stroke-opacity="0.24" stroke-width="1"/><circle cx="250" cy="616.86" r="3" fill="#4C78A8" fill-opacity="0.55"/><circle cx="600" cy="508.59" r="3" fill="#F58518" fill-opacity="0.55"/><circle cx="950" cy="482.90" r="3" fill="#54A24B" fill-opacity="0.55"/><polyline points="250,654.74 600,631.69 950,586.37" fill="none" stroke="#777" stroke-opacity="0.24" stroke-width="1"/><circle cx="250" cy="654.74" r="3" fill="#4C78A8" fill-opacity="0.55"/><circle cx="600" cy="631.69" r="3" fill="#F58518" fill-opacity="0.55"/><circle cx="950" cy="586.37" r="3" fill="#54A24B" fill-opacity="0.55"/><polyline points="250,462.39 600,314.69 950,232.20" fill="none" stroke="#777" stroke-opacity="0.24" stroke-width="1"/><circle cx="250" cy="462.39" r="3" fill="#4C78A8" fill-opacity="0.55"/><circle cx="600" cy="314.69" r="3" fill="#F58518" fill-opacity="0.55"/><circle cx="950" cy="232.20" r="3" fill="#54A24B" fill-opacity="0.55"/><polyline points="250,552.53 600,498.79 950,462.50" fill="none" stroke="#777" stroke-opacity="0.24" stroke-width="1"/><circle cx="250" cy="552.53" r="3" fill="#4C78A8" fill-opacity="0.55"/><circle cx="600" cy="498.79" r="3" fill="#F58518" fill-opacity="0.55"/><circle cx="950" cy="462.50" r="3" fill="#54A24B" fill-opacity="0.55"/><polyline points="250,466.32 600,333.59 950,243.35" fill="none" stroke="#777" stroke-opacity="0.24" stroke-width="1"/><circle cx="250" cy="466.32" r="3" fill="#4C78A8" fill-opacity="0.55"/><circle cx="600" cy="333.59" r="3" fill="#F58518" fill-opacity="0.55"/><circle cx="950" cy="243.35" r="3" fill="#54A24B" fill-opacity="0.55"/><polyline points="250,676.59 600,670.79 950,662.93" fill="none" stroke="#777" stroke-opacity="0.24" stroke-width="1"/><circle cx="250" cy="676.59" r="3" fill="#4C78A8" fill-opacity="0.55"/><circle cx="600" cy="670.79" r="3" fill="#F58518" fill-opacity="0.55"/><circle cx="950" cy="662.93" r="3" fill="#54A24B" fill-opacity="0.55"/><polyline points="250,492.73 600,363.90 950,238.89" fill="none" stroke="#777" stroke-opacity="0.24" stroke-width="1"/><circle cx="250" cy="492.73" r="3" fill="#4C78A8" fill-opacity="0.55"/><circle cx="600" cy="363.90" r="3" fill="#F58518" fill-opacity="0.55"/><circle cx="950" cy="238.89" r="3" fill="#54A24B" fill-opacity="0.55"/><polyline points="250,676.88 600,597.88 950,436.29" fill="none" stroke="#777" stroke-opacity="0.24" stroke-width="1"/><circle cx="250" cy="676.88" r="3" fill="#4C78A8" fill-opacity="0.55"/><circle cx="600" cy="597.88" r="3" fill="#F58518" fill-opacity="0.55"/><circle cx="950" cy="436.29" r="3" fill="#54A24B" fill-opacity="0.55"/><polyline points="250,579.06 600,481.83 950,317.58" fill="none" stroke="#777" stroke-opacity="0.24" stroke-width="1"/><circle cx="250" cy="579.06" r="3" fill="#4C78A8" fill-opacity="0.55"/><circle cx="600" cy="481.83" r="3" fill="#F58518" fill-opacity="0.55"/><circle cx="950" cy="317.58" r="3" fill="#54A24B" fill-opacity="0.55"/><polyline points="250,441.57 600,298.00 950,190.34" fill="none" stroke="#777" stroke-opacity="0.24" stroke-width="1"/><circle cx="250" cy="441.57" r="3" fill="#4C78A8" fill-opacity="0.55"/><circle cx="600" cy="298.00" r="3" fill="#F58518" fill-opacity="0.55"/><circle cx="950" cy="190.34" r="3" fill="#54A24B" fill-opacity="0.55"/><polyline points="250,664.04 600,610.04 950,479.19" fill="none" stroke="#777" stroke-opacity="0.24" stroke-width="1"/><circle cx="250" cy="664.04" r="3" fill="#4C78A8" fill-opacity="0.55"/><circle cx="600" cy="610.04" r="3" fill="#F58518" fill-opacity="0.55"/><circle cx="950" cy="479.19" r="3" fill="#54A24B" fill-opacity="0.55"/><line x1="195" y1="543.6184206782216" x2="305" y2="543.6184206782216" stroke="#111" stroke-width="7"/><text class="t" x="165" y="725">Fixed</text><text class="s" x="195" y="531.6184206782216">mean 0.239</text><line x1="545" y1="426.93315471204835" x2="655" y2="426.93315471204835" stroke="#111" stroke-width="7"/><text class="t" x="515" y="725">Full PCC</text><text class="s" x="545" y="414.93315471204835">mean 0.444</text><line x1="895" y1="317.0324699149643" x2="1005" y2="317.0324699149643" stroke="#111" stroke-width="7"/><text class="t" x="865" y="725">No-smoothing PCC</text><text class="s" x="895" y="305.0324699149643">mean 0.637</text></svg>
