<svg xmlns="http://www.w3.org/2000/svg" width="1200" height="760" viewBox="0 0 1200 760"><rect width="100%" height="100%" fill="white"/><style>text{font-family:Arial,sans-serif;fill:#222}.h{font-size:28px;font-weight:bold}.t{font-size:20px}.s{font-size:16px}</style><text class="h" x="45" y="45">RHUH external cohort (n=39)</text><line x1="160" y1="680" x2="1100" y2="680" stroke="#ddd"/><text class="s" x="95" y="686">0.0</text><line x1="160" y1="566.0" x2="1100" y2="566.0" stroke="#ddd"/><text class="s" x="95" y="572.0">0.2</text><line x1="160" y1="452.0" x2="1100" y2="452.0" stroke="#ddd"/><text class="s" x="95" y="458.0">0.4</text><line x1="160" y1="338.0" x2="1100" y2="338.0" stroke="#ddd"/><text class="s" x="95" y="344.0">0.6</text><line x1="160" y1="224.0" x2="1100" y2="224.0" stroke="#ddd"/><text class="s" x="95" y="230.0">0.8</text><line x1="160" y1="110.0" x2="1100" y2="110.0" stroke="#ddd"/><text class="s" x="95" y="116.0">1.0</text><text class="t" transform="translate(45,470) rotate(-90)">Patient-level Dice at threshold 0.5</text><polyline points="250,565.67 600,388.21 950,352.48" fill="none" stroke="#777" stroke-opacity="0.24" stroke-width="1"/><circle cx="250" cy="565.67" r="3" fill="#4C78A8" fill-opacity="0.55"/><circle cx="600" cy="388.21" r="3" fill="#F58518" fill-opacity="0.55"/><circle cx="950" cy="352.48" r="3" fill="#54A24B" fill-opacity="0.55"/><polyline points="250,679.88 600,678.84 950,666.89" fill="none" stroke="#777" stroke-opacity="0.24" stroke-width="1"/><circle cx="250" cy="679.88" r="3" fill="#4C78A8" fill-opacity="0.55"/><circle cx="600" cy="678.84" r="3" fill="#F58518" fill-opacity="0.55"/><circle cx="950" cy="666.89" r="3" fill="#54A24B" fill-opacity="0.55"/><polyline points="250,662.85 600,634.18 950,623.74" fill="none" stroke="#777" stroke-opacity="0.24" stroke-width="1"/><circle cx="250" cy="662.85" r="3" fill="#4C78A8" fill-opacity="0.55"/><circle cx="600" cy="634.18" r="3" fill="#F58518" fill-opacity="0.55"/><circle cx="950" cy="623.74" r="3" fill="#54A24B" fill-opacity="0.55"/><polyline points="250,567.31 600,478.00 950,451.50" fill="none" stroke="#777" stroke-opacity="0.24" stroke-width="1"/><circle cx="250" cy="567.31" r="3" fill="#4C78A8" fill-opacity="0.55"/><circle cx="600" cy="478.00" r="3" fill="#F58518" fill-opacity="0.55"/><circle cx="950" cy="451.50" r="3" fill="#54A24B" fill-opacity="0.55"/><polyline points="250,433.22 600,334.09 950,287.78" fill="none" stroke="#777" stroke-opacity="0.24" stroke-width="1"/><circle cx="250" cy="433.22" r="3" fill="#4C78A8" fill-opacity="0.55"/><circle cx="600" cy="334.09" r="3" fill="#F58518" fill-opacity="0.55"/><circle cx="950" cy="287.78" r="3" fill="#54A24B" fill-opacity="0.55"/><polyline points="250,583.18 600,517.84 950,460.37" fill="none" stroke="#777" stroke-opacity="0.24" stroke-width="1"/><circle cx="250" cy="583.18" r="3" fill="#4C78A8" fill-opacity="0.55"/><circle cx="600" cy="517.84" r="3" fill="#F58518" fill-opacity="0.55"/><circle cx="950" cy="460.37" r="3" fill="#54A24B" fill-opacity="0.55"/><polyline points="250,680.00 600,679.79 950,679.83" fill="none" stroke="#777" stroke-opacity="0.24" stroke-width="1"/><circle cx="250" cy="680.00" r="3" fill="#4C78A8" fill-opacity="0.55"/><circle cx="600" cy="679.79" r="3" fill="#F58518" fill-opacity="0.55"/><circle cx="950" cy="679.83" r="3" fill="#54A24B" fill-opacity="0.55"/><polyline points="250,663.41 600,630.47 950,593.98" fill="none" stroke="#777" stroke-opacity="0.24" stroke-width="1"/><circle cx="250" cy="663.41" r="3" fill="#4C78A8" fill-opacity="0.55"/><circle cx="600" cy="630.47" r="3" fill="#F58518" fill-opacity="0.55"/><circle cx="950" cy="593.98" r="3" fill="#54A24B" fill-opacity="0.55"/><polyline points="250,549.31 600,432.11 950,414.52" fill="none" stroke="#777" stroke-opacity="0.24" stroke-width="1"/><circle cx="250" cy="549.31" r="3" fill="#4C78A8" fill-opacity="0.55"/><circle cx="600" cy="432.11" r="3" fill="#F58518" fill-opacity="0.55"/><circle cx="950" cy="414.52" r="3" fill="#54A24B" fill-opacity="0.55"/><polyline points="250,538.54 600,400.98 950,322.25" fill="none" stroke="#777" stroke-opacity="0.24" stroke-width="1"/><circle cx="250" cy="538.54" r="3" fill="#4C78A8" fill-opacity="0.55"/><circle cx="600" cy="400.98" r="3" fill="#F58518" fill-opacity="0.55"/><circle cx="950" cy="322.25" r="3" fill="#54A24B" fill-opacity="0.55"/><polyline points="250,673.68 600,663.88 950,654.19" fill="none" stroke="#777" stroke-opacity="0.24" stroke-width="1"/><circle cx="250" cy="673.68" r="3" fill="#4C78A8" fill-opacity="0.55"/><circle cx="600" cy="663.88" r="3" fill="#F58518" fill-opacity="0.55"/><circle cx="950" cy="654.19" r="3" fill="#54A24B" fill-opacity="0.55"/><polyline points="250,607.55 600,484.73 950,420.00" fill="none" stroke="#777" stroke-opacity="0.24" stroke-width="1"/><circle cx="250" cy="607.55" r="3" fill="#4C78A8" fill-opacity="0.55"/><circle cx="600" cy="484.73" r="3" fill="#F58518" fill-opacity="0.55"/><circle cx="950" cy="420.00" r="3" fill="#54A24B" fill-opacity="0.55"/><polyline points="250,459.83 600,349.41 950,286.28" fill="none" stroke="#777" stroke-opacity="0.24" stroke-width="1"/><circle cx="250" cy="459.83" r="3" fill="#4C78A8" fill-opacity="0.55"/><circle cx="600" cy="349.41" r="3" fill="#F58518" fill-opacity="0.55"/><circle cx="950" cy="286.28" r="3" fill="#54A24B" fill-opacity="0.55"/><polyline points="250,664.56 600,619.69 950,607.27" fill="none" stroke="#777" stroke-opacity="0.24" stroke-width="1"/><circle cx="250" cy="664.56" r="3" fill="#4C78A8" fill-opacity="0.55"/><circle cx="600" cy="619.69" r="3" fill="#F58518" fill-opacity="0.55"/><circle cx="950" cy="607.27" r="3" fill="#54A24B" fill-opacity="0.55"/><polyline points="250,529.52 600,361.60 950,261.55" fill="none" stroke="#777" stroke-opacity="0.24" stroke-width="1"/><circle cx="250" cy="529.52" r="3" fill="#4C78A8" fill-opacity="0.55"/><circle cx="600" cy="361.60" r="3" fill="#F58518" fill-opacity="0.55"/><circle cx="950" cy="261.55" r="3" fill="#54A24B" fill-opacity="0.55"/><polyline points="250,675.72 600,577.44 950,526.58" fill="none" stroke="#777" stroke-opacity="0.24" stroke-width="1"/><circle cx="250" cy="675.72" r="3" fill="#4C78A8" fill-opacity="0.55"/><circle cx="600" cy="577.44" r="3" fill="#F58518" fill-opacity="0.55"/><circle cx="950" cy="526.58" r="3" fill="#54A24B" fill-opacity="0.55"/><polyline points="250,544.73 600,418.45 950,360.64" fill="none" stroke="#777" stroke-opacity="0.24" stroke-width="1"/><circle cx="250" cy="544.73" r="3" fill="#4C78A8" fill-opacity="0.55"/><circle cx="600" cy="418.45" r="3" fill="#F58518" fill-opacity="0.55"/><circle cx="950" cy="360.64" r="3" fill="#54A24B" fill-opacity="0.55"/><polyline points="250,592.84 600,490.65 950,434.64" fill="none" stroke="#777" stroke-opacity="0.24" stroke-width="1"/><circle cx="250" cy="592.84" r="3" fill="#4C78A8" fill-opacity="0.55"/><circle cx="600" cy="490.65" r="3" fill="#F58518" fill-opacity="0.55"/><circle cx="950" cy="434.64" r="3" fill="#54A24B" fill-opacity="0.55"/><polyline points="250,515.80 600,411.81 950,327.05" fill="none" stroke="#777" stroke-opacity="0.24" stroke-width="1"/><circle cx="250" cy="515.80" r="3" fill="#4C78A8" fill-opacity="0.55"/><circle cx="600" cy="411.81" r="3" fill="#F58518" fill-opacity="0.55"/><circle cx="950" cy="327.05" r="3" fill="#54A24B" fill-opacity="0.55"/><polyline points="250,523.00 600,411.71 950,365.78" fill="none" stroke="#777" stroke-opacity="0.24" stroke-width="1"/><circle cx="250" cy="523.00" r="3" fill="#4C78A8" fill-opacity="0.55"/><circle cx="600" cy="411.71" r="3" fill="#F58518" fill-opacity="0.55"/><circle cx="950" cy="365.78" r="3" fill="#54A24B" fill-opacity="0.55"/><polyline points="250,620.31 600,456.94 950,354.53" fill="none" stroke="#777" stroke-opacity="0.24" stroke-width="1"/><circle cx="250" cy="620.31" r="3" fill="#4C78A8" fill-opacity="0.55"/><circle cx="600" cy="456.94" r="3" fill="#F58518" fill-opacity="0.55"/><circle cx="950" cy="354.53" r="3" fill="#54A24B" fill-opacity="0.55"/><polyline points="250,477.83 600,348.41 950,299.32" fill="none" stroke="#777" stroke-opacity="0.24" stroke-width="1"/><circle cx="250" cy="477.83" r="3" fill="#4C78A8" fill-opacity="0.55"/><circle cx="600" cy="348.41" r="3" fill="#F58518" fill-opacity="0.55"/><circle cx="950" cy="299.32" r="3" fill="#54A24B" fill-opacity="0.55"/><polyline points="250,576.78 600,440.52 950,374.30" fill="none" stroke="#777" stroke-opacity="0.24" stroke-width="1"/><circle cx="250" cy="576.78" r="3" fill="#4C78A8" fill-opacity="0.55"/><circle cx="600" cy="440.52" r="3" fill="#F58518" fill-opacity="0.55"/><circle cx="950" cy="374.30" r="3" fill="#54A24B" fill-opacity="0.55"/><polyline points="250,547.78 600,394.44 950,358.84" fill="none" stroke="#777" stroke-opacity="0.24" stroke-width="1"/><circle cx="250" cy="547.78" r="3" fill="#4C78A8" fill-opacity="0.55"/><circle cx="600" cy="394.44" r="3" fill="#F58518" fill-opacity="0.55"/><circle cx="950" cy="358.84" r="3" fill="#54A24B" fill-opacity="0.55"/><polyline points="250,606.97 600,490.73 950,419.31" fill="none" stroke="#777" stroke-opacity="0.24" stroke-width="1"/><circle cx="250" cy="606.97" r="3" fill="#4C78A8" fill-opacity="0.55"/><circle cx="600" cy="490.73" r="3" fill="#F58518" fill-opacity="0.55"/><circle cx="950" cy="419.31" r="3" fill="#54A24B" fill-opacity="0.55"/><polyline points="250,479.70 600,381.88 950,321.85" fill="none" stroke="#777" stroke-opacity="0.24" stroke-width="1"/><circle cx="250" cy="479.70" r="3" fill="#4C78A8" fill-opacity="0.55"/><circle cx="600" cy="381.88" r="3" fill="#F58518" fill-opacity="0.55"/><circle cx="950" cy="321.85" r="3" fill="#54A24B" fill-opacity="0.55"/><polyline points="250,558.22 600,427.94 950,409.34" fill="none" stroke="#777" stroke-opacity="0.24" stroke-width="1"/><circle cx="250" cy="558.22" r="3" fill="#4C78A8" fill-opacity="0.55"/><circle cx="600" cy="427.94" r="3" fill="#F58518" fill-opacity="0.55"/><circle cx="950" cy="409.34" r="3" fill="#54A24B" fill-opacity="0.55"/><polyline points="250,466.20 600,379.36 950,346.03" fill="none" stroke="#777" stroke-opacity="0.24" stroke-width="1"/><circle cx="250" cy="466.20" r="3" fill="#4C78A8" fill-opacity="0.55"/><circle cx="600" cy="379.36" r="3" fill="#F58518" fill-opacity="0.55"/><circle cx="950" cy="346.03" r="3" fill="#54A24B" fill-opacity="0.55"/><polyline points="250,586.63 600,470.84 950,440.34" fill="none" stroke="#777" stroke-opacity="0.24" stroke-width="1"/><circle cx="250" cy="586.63" r="3" fill="#4C78A8" fill-opacity="0.55"/><circle cx="600" cy="470.84" r="3" fill="#F58518" fill-opacity="0.55"/><circle cx="950" cy="440.34" r="3" fill="#54A24B" fill-opacity="0.55"/><polyline points="250,636.56 600,530.93 950,466.11" fill="none" stroke="#777" stroke-opacity="0.24" stroke-width="1"/><circle cx="250" cy="636.56" r="3" fill="#4C78A8" fill-opacity="0.55"/><circle cx="600" cy="530.93" r="3" fill="#F58518" fill-opacity="0.55"/><circle cx="950" cy="466.11" r="3" fill="#54A24B" fill-opacity="0.55"/><polyline points="250,631.09 600,556.87 950,494.67" fill="none" stroke="#777" stroke-opacity="0.24" stroke-width="1"/><circle cx="250" cy="631.09" r="3" fill="#4C78A8" fill-opacity="0.55"/><circle cx="600" cy="556.87" r="3" fill="#F58518" fill-opacity="0.55"/><circle cx="950" cy="494.67" r="3" fill="#54A24B" fill-opacity="0.55"/><polyline points="250,613.79 600,541.90 950,527.51" fill="none" stroke="#777" stroke-opacity="0.24" stroke-width="1"/><circle cx="250" cy="613.79" r="3" fill="#4C78A8" fill-opacity="0.55"/><circle cx="600" cy="541.90" r="3" fill="#F58518" fill-opacity="0.55"/><circle cx="950" cy="527.51" r="3" fill="#54A24B" fill-opacity="0.55"/><polyline points="250,539.25 600,372.72 950,319.43" fill="none" stroke="#777" stroke-opacity="0.24" stroke-width="1"/><circle cx="250" cy="539.25" r="3" fill="#4C78A8" fill-opacity="0.55"/><circle cx="600" cy="372.72" r="3" fill="#F58518" fill-opacity="0.55"/><circle cx="950" cy="319.43" r="3" fill="#54A24B" fill-opacity="0.55"/><polyline points="250,651.91 600,576.04 950,460.72" fill="none" stroke="#777" stroke-opacity="0.24" stroke-width="1"/><circle cx="250" cy="651.91" r="3" fill="#4C78A8" fill-opacity="0.55"/><circle cx="600" cy="576.04" r="3" fill="#F58518" fill-opacity="0.55"/><circle cx="950" cy="460.72" r="3" fill="#54A24B" fill-opacity="0.55"/><polyline points="250,593.61 600,484.17 950,427.45" fill="none" stroke="#777" stroke-opacity="0.24" stroke-width="1"/><circle cx="250" cy="593.61" r="3" fill="#4C78A8" fill-opacity="0.55"/><circle cx="600" cy="484.17" r="3" fill="#F58518" fill-opacity="0.55"/><circle cx="950" cy="427.45" r="3" fill="#54A24B" fill-opacity="0.55"/><polyline points="250,464.95 600,326.92 950,280.91" fill="none" stroke="#777" stroke-opacity="0.24" stroke-width="1"/><circle cx="250" cy="464.95" r="3" fill="#4C78A8" fill-opacity="0.55"/><circle cx="600" cy="326.92" r="3" fill="#F58518" fill-opacity="0.55"/><circle cx="950" cy="280.91" r="3" fill="#54A24B" fill-opacity="0.55"/><polyline points="250,654.34 600,591.28 950,540.93" fill="none" stroke="#777" stroke-opacity="0.24" stroke-width="1"/><circle cx="250" cy="654.34" r="3" fill="#4C78A8" fill-opacity="0.55"/><circle cx="600" cy="591.28" r="3" fill="#F58518" fill-opacity="0.55"/><circle cx="950" cy="540.93" r="3" fill="#54A24B" fill-opacity="0.55"/><polyline points="250,464.36 600,361.73 950,326.03" fill="none" stroke="#777" stroke-opacity="0.24" stroke-width="1"/><circle cx="250" cy="464.36" r="3" fill="#4C78A8" fill-opacity="0.55"/><circle cx="600" cy="361.73" r="3" fill="#F58518" fill-opacity="0.55"/><circle cx="950" cy="326.03" r="3" fill="#54A24B" fill-opacity="0.55"/><polyline points="250,426.53 600,299.08 950,224.29" fill="none" stroke="#777" stroke-opacity="0.24" stroke-width="1"/><circle cx="250" cy="426.53" r="3" fill="#4C78A8" fill-opacity="0.55"/><circle cx="600" cy="299.08" r="3" fill="#F58518" fill-opacity="0.55"/><circle cx="950" cy="224.29" r="3" fill="#54A24B" fill-opacity="0.55"/><line x1="195" y1="571.984898022772" x2="305" y2="571.984898022772" stroke="#111" stroke-width="7"/><text class="t" x="165" y="725">Fixed</text><text class="s" x="195" y="559.984898022772">mean 0.190</text><line x1="545" y1="471.70666659444885" x2="655" y2="471.70666659444885" stroke="#111" stroke-width="7"/><text class="t" x="515" y="725">Full PCC</text><text class="s" x="545" y="459.70666659444885">mean 0.365</text><line x1="895" y1="422.80045202754457" x2="1005" y2="422.80045202754457" stroke="#111" stroke-width="7"/><text class="t" x="865" y="725">No-smoothing PCC</text><text class="s" x="895" y="410.80045202754457">mean 0.451</text></svg>
